<svg xmlns="http://www.w3.org/2000/svg" width="121" height="33" fill="none"><path fill="#fff" fill-rule="evenodd" d="M34.168 24.82h5.44V13.396c0-.77-.068-1.558-.204-2.363a6.036 6.036 0 0 0-.799-2.176c-.397-.646-.963-1.179-1.7-1.598-.737-.42-1.706-.629-2.907-.629-1.292 0-2.476.289-3.553.867a6.785 6.785 0 0 0-2.6 2.465V0h-5.44v24.82h5.44V14.586a4.4 4.4 0 0 1 .68-1.292 5.83 5.83 0 0 1 .968-1.003 4.173 4.173 0 0 1 1.088-.646c.374-.147.72-.221 1.037-.221.793 0 1.417.272 1.87.816.453.544.68 1.394.68 2.55v10.03ZM15.47 7.242c.408.25.646.42.714.51l2.448-4.624a28.403 28.403 0 0 0-1.785-.952c-.646-.317-1.343-.6-2.091-.85-.748-.25-1.53-.453-2.346-.612A12.973 12.973 0 0 0 9.928.476c-1.201 0-2.34.17-3.417.51a8.435 8.435 0 0 0-2.839 1.513 7.266 7.266 0 0 0-1.938 2.465c-.476.975-.714 2.097-.714 3.366 0 .907.13 1.7.391 2.38.26.68.657 1.28 1.19 1.802.533.521 1.207.98 2.023 1.377.816.397 1.78.765 2.89 1.105.335.1.661.196.976.288l1.702.495c.568.175 1.07.362 1.504.56.521.238.93.504 1.224.799.295.295.442.669.442 1.122 0 1.201-.986 1.802-2.958 1.802-.93 0-1.847-.125-2.754-.374a18.925 18.925 0 0 1-2.465-.85 13.244 13.244 0 0 1-1.853-.952c-.499-.317-.793-.533-.884-.646L0 22.1c.703.476 1.468.895 2.295 1.258s1.683.674 2.567.935a19.674 19.674 0 0 0 5.44.799c1.156 0 2.278-.13 3.366-.391 1.088-.26 2.051-.68 2.89-1.258a6.448 6.448 0 0 0 2.023-2.278c.51-.94.765-2.091.765-3.451 0-1.11-.176-2.063-.527-2.856a5.647 5.647 0 0 0-1.496-2.023c-.646-.555-1.434-1.02-2.363-1.394-.93-.374-1.972-.72-3.128-1.037l-.805-.22-1.405-.392c-.635-.181-1.162-.38-1.581-.595-.42-.215-.737-.459-.952-.731-.215-.272-.323-.612-.323-1.02 0-1.337.997-2.006 2.992-2.006.725 0 1.45.102 2.176.306.725.204 1.394.442 2.006.714.612.272 1.122.533 1.53.782ZM51.948 25.16c-1.519 0-2.873-.25-4.063-.748-1.19-.499-2.193-1.173-3.009-2.023a8.542 8.542 0 0 1-1.853-2.958 9.97 9.97 0 0 1-.629-3.519c0-1.224.21-2.397.63-3.519a8.542 8.542 0 0 1 1.852-2.958c.816-.85 1.82-1.53 3.01-2.04 1.19-.51 2.543-.765 4.062-.765 1.519 0 2.868.255 4.046.765 1.179.51 2.176 1.19 2.992 2.04a8.753 8.753 0 0 1 1.87 2.958 9.735 9.735 0 0 1 .646 3.519c0 1.224-.21 2.397-.629 3.519a8.54 8.54 0 0 1-1.853 2.958c-.816.85-1.819 1.524-3.009 2.023-1.19.499-2.544.748-4.063.748Zm-2.856-5.865c-.748-.85-1.122-1.978-1.122-3.383 0-.68.102-1.309.306-1.887a4.57 4.57 0 0 1 .833-1.479 3.702 3.702 0 0 1 2.839-1.292c1.134 0 2.074.425 2.822 1.275.748.85 1.122 1.978 1.122 3.383 0 .68-.102 1.309-.306 1.887a4.568 4.568 0 0 1-.833 1.479 3.752 3.752 0 0 1-1.24.952 3.59 3.59 0 0 1-1.565.34c-1.156 0-2.108-.425-2.856-1.275Zm26.654-7.667c-1.314.023-2.504.238-3.57.646-1.065.408-1.836 1.02-2.312 1.836v10.71h-5.44V6.97h4.998v3.604c.612-1.201 1.4-2.142 2.363-2.822.964-.68 1.99-1.031 3.077-1.054h.544c.114 0 .227.011.34.034v4.896Zm11.507 13.124a21.712 21.712 0 0 0 2.567-.884l-1.054-4.318a7.717 7.717 0 0 1-1.122.442c-.43.136-.85.204-1.258.204-.453 0-.827-.13-1.121-.391-.295-.26-.443-.686-.443-1.275v-7.446h3.638V6.97h-3.638V1.292h-5.44V6.97h-2.278v4.114h2.278V20.4c0 .861.13 1.598.391 2.21.261.612.618 1.105 1.071 1.479.454.374.98.646 1.581.816.601.17 1.241.255 1.921.255.975 0 1.944-.136 2.907-.408ZM92.097 0h5.44v18.462c0 1.36.578 2.04 1.734 2.04.272 0 .572-.04.901-.119.328-.08.629-.198.901-.357l.714 4.08c-.68.317-1.462.567-2.346.748-.884.181-1.712.272-2.482.272-1.565 0-2.766-.408-3.604-1.224-.84-.816-1.258-1.995-1.258-3.536V0Zm12.731 27.846a7.927 7.927 0 0 1-1.275-.34v4.658c.476.181.946.312 1.411.391.464.08.923.119 1.377.119 1.677 0 3.128-.459 4.352-1.377a7.106 7.106 0 0 0 2.55-3.587l6.8-20.74h-5.1l-3.57 13.192-4.148-13.192h-5.61l6.8 17.85c-.295 1.179-.624 1.995-.986 2.448-.363.453-.873.68-1.53.68-.318 0-.675-.034-1.071-.102Z" clip-rule="evenodd"/></svg>